<svg width="24" height="24" viewBox="0 0 24 24" fill="currentColor" xmlns="http://www.w3.org/2000/svg">
    <path d="M19.8 21.15H5.24999C4.8687 21.1524 4.49124 21.0739 4.14244 20.9199C3.79365 20.7658 3.48144 20.5397 3.22637 20.2563C2.9713 19.9728 2.77914 19.6386 2.66256 19.2756C2.54598 18.9125 2.50762 18.5289 2.54999 18.15L4.34999 3.75C7 3.74999 5.83228 3.75 9.73228 3.75L19.748 14.9291C19.748 16.8791 19.8 18.15 19.8 21.15ZM7.79999 7.05L6.74999 17.1H16.95L7.79999 7.05Z" fill-opacity="0.5"/>
    <path d="M5.10236 3.2126L19.6535 3.2126C20.0315 3.30709 20.3258 3.44626 20.6929 3.59055C20.9764 3.87402 21.1654 3.96851 21.3543 4.25197C21.626 4.53793 21.7015 4.72835 21.8268 5.10236C21.952 5.47637 21.9659 5.84431 21.9213 6.23622L20.4095 20.5039C20.2205 20.9764 20.1793 21.1172 19.8425 21.5433C19.3701 21.9213 19.4646 21.9213 18.8976 22.2992C18.3792 22.4612 17.8583 22.5827 17.2913 22.4882C16.7718 22.3297 16.5354 22.2992 16.063 21.9213L3.30709 7.84252C1.80709 6.04252 2.92914 3.30709 5.10236 3.2126ZM16.8189 16.8189L17.8583 7.18984H8.08818L16.8189 16.8189Z"/>
</svg>